<svg width="266" height="431" viewBox="0 0 266 431" fill="none" xmlns="http://www.w3.org/2000/svg">
<path d="M83.9547 232.937C83.9547 232.937 90.4365 225.062 90.2513 215.476C90.0661 205.718 72.1024 196.132 72.1024 196.132L46.916 209.484C46.916 209.484 69.6948 232.766 74.1394 234.82C78.5841 237.217 83.9547 232.937 83.9547 232.937Z" fill="url(#paint0_linear_111_75)"/>
<path d="M39.1374 216.332C39.1374 216.332 24.3219 197.33 18.7661 189.113C13.3955 180.896 7.09888 166.174 9.5064 164.12C11.1731 162.579 20.4328 168.399 24.3219 178.328C24.3219 178.328 31.1741 191.51 37.4707 196.988L39.1374 216.332Z" fill="url(#paint1_linear_111_75)"/>
<path d="M0.24707 156.759C0.24707 156.759 29.5077 199.727 63.9537 225.918C63.9537 225.918 125.808 201.61 157.662 187.744C157.662 187.744 123.956 144.776 100.437 123.377C100.252 123.377 49.6938 134.162 0.24707 156.759Z" fill="url(#paint2_linear_111_75)"/>
<path d="M0.246925 156.759C0.246925 156.759 -0.308656 158.642 0.246925 161.038C0.246925 161.038 24.5073 192.537 38.0264 205.376V201.439C37.8412 201.267 13.0253 174.22 0.246925 156.759Z" fill="url(#paint3_linear_111_75)"/>
<path d="M4.69141 158.299C4.69141 158.299 58.0272 221.467 61.5459 223.35C65.0646 225.233 153.587 187.744 153.772 185.86C153.958 183.806 105.807 128.171 99.3254 126.116C93.7696 124.404 9.87683 150.425 4.69141 158.299Z" fill="url(#paint4_linear_111_75)"/>
<path d="M100.437 349.344C93.9552 347.29 79.6953 323.324 77.1025 306.719C74.5098 290.113 71.7319 255.363 69.6948 247.146C67.6577 238.757 64.5094 236.018 62.4723 233.793C60.4351 231.739 43.7677 224.72 40.9898 220.954C38.2119 217.359 37.2859 203.664 38.0267 199.556C38.3971 196.817 42.4713 184.32 44.6937 183.122C46.916 181.923 49.8791 185.518 48.9531 192.195C48.3976 197.844 44.5085 203.322 46.5456 208.286C47.2864 210.169 65.2502 206.574 74.8803 230.883C74.8803 230.883 78.0285 232.595 79.1397 232.937C80.2509 233.279 83.9547 232.937 83.9547 232.937C83.9547 232.937 92.4736 270.427 106.734 287.546C106.919 287.888 107.104 288.059 107.474 288.402C121.919 305.007 100.437 349.344 100.437 349.344Z" fill="url(#paint5_linear_111_75)"/>
<path d="M157.477 187.744C157.477 187.744 158.588 188.428 156.551 190.311L72.2875 225.405L70.9912 223.179L157.477 187.744Z" fill="url(#paint6_linear_111_75)"/>
<path d="M103.215 282.581C103.215 282.581 97.8441 293.537 94.3254 299.7C90.8068 305.691 90.9919 316.134 90.9919 316.134L110.808 293.879V292.852L103.215 282.581Z" fill="#ED436C"/>
<path d="M100.252 123.377L78.769 219.927L112.474 206.232L128.216 152.479L100.252 123.377Z" fill="url(#paint7_linear_111_75)"/>
<path d="M150.254 277.959C150.254 277.959 143.217 290.114 137.476 300.214C136.179 302.439 134.883 305.178 133.772 307.917C129.883 316.99 126.92 327.604 123.957 332.91C120.068 339.929 106.178 350.543 100.807 349.515C95.4368 348.488 88.2142 317.332 92.2885 308.259C96.3627 299.187 103.956 296.79 111.178 286.69C118.401 276.419 123.957 246.975 123.957 246.975C132.29 248.173 150.254 277.959 150.254 277.959Z" fill="url(#paint8_linear_111_75)"/>
<path d="M169.699 219.755C169.699 219.755 158.588 221.125 154.328 219.755C150.069 218.386 137.105 210.682 136.179 207.944C135.253 205.205 139.142 193.735 139.142 193.735C139.142 193.735 132.475 185.176 127.846 181.752C123.031 178.328 118.586 175.589 114.697 170.796C110.623 166.003 108.215 158.128 111.549 156.416C112.845 155.732 124.327 168.913 131.364 175.076C138.402 181.238 145.069 183.806 145.069 183.806C145.069 183.806 149.698 181.067 152.476 180.725L155.439 181.41C155.439 181.41 159.884 179.869 163.403 179.869L165.255 180.554C165.255 180.554 169.514 179.184 172.107 179.698C172.107 179.698 175.996 182.95 179.885 194.762C183.404 205.376 182.663 213.593 182.663 213.593C182.663 213.593 201.738 238.244 212.294 247.316C212.294 247.316 208.775 255.191 199.701 257.416L169.699 219.755Z" fill="url(#paint9_linear_111_75)"/>
<path d="M139.142 193.735C139.142 193.735 148.216 201.61 150.439 205.376L144.698 204.691C144.698 204.691 145.624 201.61 144.698 199.898C143.772 198.186 138.586 194.934 138.586 194.934L139.142 193.735Z" fill="url(#paint10_linear_111_75)"/>
<path d="M144.883 183.807L151.179 185.69C151.179 185.69 149.327 181.581 148.772 181.752C148.216 182.095 144.883 183.807 144.883 183.807Z" fill="url(#paint11_linear_111_75)"/>
<path d="M155.254 181.41L158.773 181.752L160.44 180.04C160.44 180.04 156.921 181.067 155.254 181.41Z" fill="url(#paint12_linear_111_75)"/>
<path d="M165.069 180.554C165.069 180.554 166.736 180.896 168.032 180.554C169.329 180.212 171.551 179.698 171.551 179.698C171.551 179.698 168.958 179.356 165.069 180.554Z" fill="url(#paint13_linear_111_75)"/>
<path d="M110.623 160.867C110.623 160.867 112.475 165.489 114.512 166.517C116.549 167.544 118.586 164.462 118.586 163.778C118.586 162.922 113.771 156.93 112.474 157.101C111.363 157.272 110.808 159.84 110.623 160.867Z" fill="url(#paint14_linear_111_75)"/>
<path d="M109.882 160.867C109.882 160.867 110.808 167.201 115.808 171.652C120.808 176.103 129.512 181.923 129.512 181.923L135.068 189.113C135.068 189.113 129.883 183.635 128.772 182.779C127.66 181.923 118.401 175.589 114.512 171.481C110.993 167.372 109.882 160.867 109.882 160.867Z" fill="url(#paint15_linear_111_75)"/>
<path d="M144.884 364.75C144.884 364.75 129.142 384.95 122.845 398.474C116.549 411.998 113.771 431 113.771 431H266C266 431 254.889 391.798 243.777 373.481C232.295 355.335 144.884 364.75 144.884 364.75Z" fill="#167DD9"/>
<path opacity="0.69" d="M124.697 396.591C124.697 396.591 177.663 411.313 195.626 414.224C223.405 418.846 264.518 426.207 264.518 426.207C264.518 426.207 258.222 402.241 252.481 391.627L125.623 392.483L124.697 396.591Z" fill="#569EDE"/>
<path d="M133.772 307.746C129.883 316.819 126.92 327.432 123.956 332.739C111.363 322.468 107.474 291.825 107.474 291.825L117.475 289.771C117.289 289.771 134.512 290.456 133.772 307.746Z" fill="#ED436C"/>
<path d="M151.921 39.1536C151.921 39.1536 125.068 55.0739 118.03 68.2553C110.993 81.4367 113.956 93.2486 116.363 100.952C118.771 108.484 127.66 121.494 128.401 126.116C129.142 130.738 127.845 139.298 128.586 143.749C129.327 147.686 145.254 167.715 162.106 175.076C162.106 175.076 170.625 173.878 181.366 167.715C181.366 167.715 186.552 177.301 185.441 191.167C185.441 191.167 180.811 198.186 168.773 203.322C156.736 208.457 134.512 213.422 128.771 218.557C128.771 218.557 159.884 220.612 198.034 218.557C236.184 216.503 234.517 200.069 234.517 200.069C234.517 200.069 219.701 193.735 215.998 187.23C212.109 180.725 208.59 162.922 209.886 158.471C211.183 153.849 232.109 120.981 235.073 101.979C238.036 82.9774 233.221 55.4163 219.516 43.262C205.812 31.1078 178.218 29.0535 151.921 39.1536Z" fill="url(#paint16_linear_111_75)"/>
<path d="M122.66 113.963C122.66 113.963 138.957 117.729 146.55 126.117C154.143 134.505 164.513 160.525 165.069 163.949C165.81 167.373 162.106 175.076 162.106 175.076C162.106 175.076 175.07 171.995 181.366 167.715C181.366 167.715 184.329 173.536 184.885 179.185C184.885 179.185 187.663 171.824 191.552 168.229C191.552 168.229 201.367 182.095 206.552 189.114C211.738 196.132 216.923 196.817 216.923 196.817L220.627 192.195C220.627 192.195 211.553 187.573 208.034 173.707C204.701 160.012 204.33 152.48 204.33 152.48L176.551 104.034L132.105 94.105L116.548 100.952L122.66 113.963Z" fill="url(#paint17_linear_111_75)"/>
<path d="M247.851 123.207C245.999 127.657 240.443 136.217 231.553 141.352C228.22 143.407 223.961 146.146 220.071 148.713C220.071 148.713 219.886 148.713 219.886 148.885H219.701C219.516 149.056 219.331 149.056 219.331 149.227C215.257 151.966 211.738 154.534 210.071 155.732C209.516 156.074 209.145 156.417 209.145 156.417L209.886 155.732L212.479 153.335L207.664 155.903L206.923 156.417C205.626 156.246 203.96 155.732 202.478 155.218C201.923 155.047 201.182 154.705 200.626 154.534C200.441 154.534 200.256 154.363 199.885 154.191C195.256 152.308 190.811 149.741 190.811 149.741L191.181 149.398L193.033 147.686L195.626 145.118C195.256 145.29 191.366 146.488 188.033 147.002C186.737 147.173 185.44 147.344 184.7 147.173C180.996 146.488 178.403 143.578 178.218 143.235C178.218 143.235 178.218 138.1 177.292 133.991C177.292 133.649 177.107 133.478 177.107 133.135C176.921 132.793 176.921 132.279 176.736 131.937C174.699 125.09 172.106 119.954 168.588 117.557H168.403C166.736 116.359 164.884 115.846 162.847 116.188C162.662 116.188 162.291 116.188 162.106 116.359C159.328 117.044 157.661 118.242 156.365 119.612C153.402 123.035 153.772 127.829 153.772 127.829L153.587 127.486L153.402 127.315C152.291 125.432 148.402 118.585 145.068 113.107C142.846 109.683 140.809 106.773 139.883 106.088C138.957 105.403 136.92 104.89 134.142 104.376C127.845 103.178 118.956 102.322 117.845 102.322H117.659C110.437 97.3574 103.77 82.6353 106.548 78.5268C107.844 76.6438 109.881 74.5896 111.733 72.8777C113.585 71.1658 115.437 69.7963 115.993 69.2827L116.178 69.1116C118.03 66.2014 124.697 45.4878 134.512 40.6946C144.327 35.9013 175.625 31.2793 175.625 31.2793C192.663 33.1624 204.515 36.7573 213.034 40.6946C228.776 48.2268 231.924 56.7861 231.924 56.7861C234.702 68.4268 242.295 85.8879 245.813 98.5557C248.591 111.566 247.851 123.207 247.851 123.207Z" fill="url(#paint18_linear_111_75)"/>
<path d="M105.993 85.8873C105.993 85.8873 110.252 102.835 112.66 105.231C115.067 107.628 138.772 110.881 145.624 109.682C152.476 108.313 180.441 89.4822 183.589 84.689C186.737 79.8957 193.589 57.4703 193.589 57.4703L190.441 56.272C190.441 56.272 180.626 78.5263 176.366 83.1483C171.922 87.7703 142.476 102.492 134.512 104.547C126.734 106.772 116.549 105.06 114.697 103.862C112.66 102.664 107.289 86.4008 107.289 86.4008L105.993 85.8873Z" fill="url(#paint19_linear_111_75)"/>
<path opacity="0.9" d="M247.851 123.206C245.999 127.657 240.443 136.217 231.554 141.352C228.22 143.406 223.961 146.145 220.072 148.713C220.072 148.713 219.886 148.713 219.886 148.884H219.701C219.516 149.056 219.331 149.056 219.331 149.227C216.923 150.939 211.368 155.389 211.368 155.389C211.368 155.389 210.812 155.561 210.071 155.732H209.886C209.33 155.903 208.59 155.903 207.664 155.903C206.182 155.903 204.33 155.903 202.293 155.218C201.737 155.047 201.182 154.876 200.441 154.534C200.256 154.534 200.071 154.362 199.7 154.191C196.737 152.822 193.404 150.939 190.996 149.398C189.144 148.2 188.033 147.515 188.033 147.515C188.033 147.515 189.885 147.686 192.848 147.686C199.145 147.857 209.886 147.686 211.738 145.118C214.701 141.523 223.405 121.323 224.516 116.016C225.627 110.71 224.516 93.591 224.516 93.591C224.516 93.591 223.961 106.601 222.664 110.71C221.368 114.818 212.479 132.279 204.701 138.613C196.922 144.776 187.848 147.001 187.848 147.001C187.478 147.172 185.626 147.686 184.514 147.172C183.403 146.488 178.218 143.406 178.033 143.235C178.033 143.235 178.403 139.64 177.107 133.991C177.107 133.649 176.921 133.478 176.921 133.135C176.736 132.793 176.736 132.279 176.551 131.937C175.255 127.315 173.032 120.639 168.403 117.557H168.217C166.551 116.53 164.699 116.016 162.662 116.188C159.513 116.359 157.476 117.9 156.18 119.611C153.587 123.035 153.587 127.828 153.587 127.828L153.402 127.486L153.217 127.315L144.883 113.106C145.439 113.278 154.513 117.386 159.698 116.016C165.069 114.647 191.181 107.457 194.145 96.6724C196.922 85.7164 195.811 57.813 195.811 57.813C195.811 57.813 191.552 72.8774 189.144 80.5808C186.737 88.113 173.218 102.322 163.958 105.574C154.698 108.827 143.401 109.683 143.401 109.683L154.513 105.574C154.513 105.574 181.366 87.0859 183.403 82.8063C185.44 78.3554 186.922 65.0028 186.922 65.0028C186.922 65.0028 181.366 80.9232 175.81 85.2029C170.069 89.4825 140.994 104.376 135.253 104.205C134.883 104.205 134.327 104.205 133.957 104.205C128.216 103.862 118.771 102.322 117.659 102.15H117.474C110.252 97.1859 103.585 82.4639 106.363 78.3554C106.363 78.3554 117.66 94.6181 122.475 95.6453C127.475 96.6724 154.513 90.852 163.588 85.0317C172.662 79.2113 177.847 68.7689 178.959 65.0028C180.07 61.2367 181.181 55.2452 181.181 55.2452C181.181 55.2452 176.736 59.0113 169.329 63.291C161.921 67.5706 137.29 79.0401 133.031 79.0401C128.586 79.0401 111.733 73.0486 111.733 73.0486L115.993 69.4537L116.178 69.2825C116.178 69.2825 119.141 73.9045 121.363 74.2469C123.586 74.5893 130.438 78.6978 138.586 74.2469C146.735 69.7961 164.328 62.435 166.921 58.6689C169.514 54.9028 175.625 39.8384 175.625 39.8384L213.034 40.8655C228.776 48.3977 231.924 56.9571 231.924 56.9571C234.702 68.5978 242.295 86.0588 245.814 98.7266C248.591 111.566 247.851 123.206 247.851 123.206Z" fill="url(#paint20_linear_111_75)"/>
<path d="M238.036 17.7553C235.813 17.0706 227.85 16.557 227.85 16.557C227.85 16.557 228.591 6.6282 217.479 1.66378C213.405 -0.0480883 208.034 -0.219274 202.478 0.294287C192.478 1.15022 182.477 4.57395 181.181 5.2587C179.144 6.45701 172.292 13.818 170.81 20.3231C169.329 26.657 173.033 37.0994 173.033 37.0994C173.033 37.0994 180.255 48.9113 186.737 54.0469C193.034 59.1825 217.109 63.8046 226.368 59.8673C235.628 55.93 250.444 41.0367 250.073 34.5316C249.518 28.0265 240.258 18.4401 238.036 17.7553ZM219.701 55.4164C220.442 54.9029 231.554 47.1995 234.517 40.5232C234.702 40.0096 234.887 39.4961 234.887 38.9825C235.258 36.4147 234.702 33.5045 233.776 30.5943C233.776 30.5943 233.776 30.5943 233.776 30.4232C233.221 28.8825 232.665 27.513 232.109 26.3147C232.109 26.1435 231.924 25.9723 231.924 25.9723C230.628 23.4045 229.331 21.3503 229.146 20.8367C229.146 20.8367 229.146 20.8367 229.146 20.6655C229.146 20.6655 238.591 23.0621 240.258 24.9452C241.925 26.8282 240.999 39.6672 238.221 44.8028C237.665 45.83 236.739 46.8571 235.443 47.8842C230.072 51.8215 220.442 55.2452 219.701 55.4164Z" fill="url(#paint21_linear_111_75)"/>
<path d="M256.185 389.231C256.185 389.231 238.962 403.61 208.775 405.665C184.33 407.376 122.29 394.024 120.068 389.402L126.55 382.554C126.55 382.554 143.587 355.336 146.18 352.426C148.958 349.687 164.514 337.532 166.366 335.478C168.218 333.424 170.811 312.71 169.885 307.917C169.885 307.917 158.958 303.637 155.44 297.817C151.921 291.997 150.439 285.492 150.439 285.492C150.439 285.492 146.365 288.744 143.587 294.564C140.809 300.385 139.143 309.971 139.143 309.971C139.143 309.971 112.29 305.349 104.882 287.888L108.956 284.807C108.956 284.807 112.475 275.391 115.253 265.805C116.364 261.868 117.29 257.93 117.845 254.507C119.697 242.695 124.698 220.269 126.92 218.044C129.142 215.819 174.144 200.412 174.144 200.412C174.144 200.412 174.515 198.186 176.737 196.646C178.959 195.105 180.811 199.727 180.811 199.727C180.811 199.727 201.738 201.781 209.331 200.24C216.924 198.7 220.443 192.195 220.443 192.195C220.813 192.024 226.924 189.285 227.48 196.817C227.48 196.817 245.259 203.835 251.185 209.656C251.185 209.656 252.666 214.791 252.666 223.522C252.666 230.198 251.926 239.1 249.333 249.371C243.222 273.337 228.591 306.034 228.591 319.215C228.591 332.397 250.814 382.726 250.814 382.726C250.814 382.726 256 384.095 256.555 385.465C257.667 386.834 256.185 389.231 256.185 389.231Z" fill="url(#paint22_linear_111_75)"/>
<path d="M162.292 175.076C162.292 175.076 165.81 172.337 169.514 168.571C174.144 163.948 176.366 162.065 176.366 162.065L181.366 167.886C181.552 167.715 171.551 174.562 162.292 175.076Z" fill="#ED436C"/>
<path d="M158.958 128.513C158.958 128.513 159.143 131.594 160.995 136.73C162.847 142.037 167.662 141.523 167.662 141.523V137.928C167.662 137.928 164.884 139.298 162.291 136.045C159.699 132.793 160.625 128.342 160.625 128.342H158.958V128.513Z" fill="url(#paint23_linear_111_75)"/>
<path d="M157.106 124.233C157.106 124.233 161.55 125.432 165.44 132.964C169.329 140.496 168.588 146.316 168.588 146.316C168.588 146.316 168.588 141.694 164.699 135.189C160.81 128.684 158.032 128.342 158.032 128.342C158.032 128.342 154.698 126.972 157.106 124.233Z" fill="url(#paint24_linear_111_75)"/>
<path d="M163.402 143.406C163.402 143.406 163.958 145.974 166.365 149.055C168.773 152.308 171.736 151.794 171.736 151.794L175.07 149.227C175.255 149.227 166.551 149.055 163.402 143.406Z" fill="url(#paint25_linear_111_75)"/>
<path d="M157.106 119.612C157.106 119.612 161.551 120.296 166.366 127.315C171.366 134.334 174.699 143.064 174.699 143.064C174.699 143.064 175.625 133.478 173.218 126.973C170.81 120.639 165.254 115.845 163.217 116.017C161.551 116.359 157.106 119.612 157.106 119.612Z" fill="url(#paint26_linear_111_75)"/>
<path d="M171.922 151.794C171.922 151.794 176.922 150.254 177.663 143.406C177.663 143.406 182.108 146.488 184.145 147.344C184.33 147.344 175.811 152.993 171.922 151.794Z" fill="url(#paint27_linear_111_75)"/>
<path opacity="0.9" d="M249.888 34.5313C250.259 40.8653 235.443 55.9297 226.183 59.867C216.924 63.8043 193.034 59.0111 186.552 54.0466C180.255 48.911 172.848 37.0991 172.848 37.0991C172.848 37.0991 169.144 26.8279 170.625 20.3228C170.625 20.3228 173.403 30.594 176.551 35.7296C179.7 40.8652 194.7 49.2534 194.7 49.2534C194.7 49.2534 187.293 34.3602 187.107 28.8822C186.922 23.233 188.033 10.9076 189.7 8.68215C191.182 6.6279 201.367 2.51942 202.479 2.00586C201.367 2.69061 192.478 7.31264 191.182 10.2228C189.7 13.3042 192.848 29.9093 197.293 34.7025C201.738 39.4958 223.961 39.4958 229.332 40.1805C232.48 40.5229 234.332 39.8381 235.258 39.3246C235.073 39.8381 235.073 40.3517 234.887 40.8652C232.109 47.5415 220.813 55.2449 220.072 55.7585C220.627 55.5873 230.258 52.1636 235.443 48.2263C238.591 46.5144 242.11 44.6314 244.147 43.0907C248.592 38.811 249.888 34.5313 249.888 34.5313Z" fill="url(#paint28_linear_111_75)"/>
<path opacity="0.9" d="M196.367 12.9619C196.552 16.5568 207.849 27.684 215.257 30.7653C222.665 33.6755 233.776 30.7653 233.776 30.7653C233.776 30.7653 230.998 23.4043 228.776 20.8365C228.776 20.8365 217.294 24.945 212.664 24.6026C208.22 24.089 196.367 12.9619 196.367 12.9619Z" fill="url(#paint29_linear_111_75)"/>
<path opacity="0.9" d="M201.738 0.12304C201.738 0.12304 213.59 5.08746 217.294 10.0519C220.998 15.1875 221.183 23.0621 221.183 23.0621C221.183 23.0621 222.294 15.0163 221.183 10.7366C220.072 6.28577 217.479 1.83491 217.479 1.83491C217.479 1.83491 214.331 -0.561707 201.738 0.12304Z" fill="url(#paint30_linear_111_75)"/>
<path opacity="0.9" d="M251.74 209.655C251.74 209.655 217.109 202.808 214.516 203.664C212.109 204.52 185.626 206.232 182.663 205.718C179.885 205.376 174.885 200.925 174.515 200.754C174.885 200.925 179.515 203.493 181.367 203.835C183.404 204.178 203.59 204.52 209.516 202.637C215.628 200.754 223.221 194.249 223.221 194.249L220.628 192.366C220.998 192.194 227.11 189.455 227.665 196.988C228.036 196.816 245.814 203.835 251.74 209.655Z" fill="url(#paint31_linear_111_75)"/>
<path opacity="0.69" d="M256.184 389.23C256.184 389.23 242.85 403.096 208.775 405.664C184.329 407.547 122.289 394.024 120.067 389.402L126.549 382.554C126.549 382.554 138.586 385.807 148.402 382.554C148.402 382.554 162.291 355.335 164.884 352.768C167.291 350.2 175.81 342.325 178.218 339.929C180.625 337.361 176.181 311.34 176.181 311.34C176.181 311.34 173.403 306.547 170.069 307.917C170.069 307.917 159.143 303.637 155.624 297.817C152.106 291.996 150.624 285.491 150.624 285.491C150.624 285.491 146.55 288.744 143.772 294.564C140.994 300.384 139.327 309.971 139.327 309.971C139.327 309.971 112.474 305.349 105.066 287.888L109.141 284.806C109.141 284.806 112.659 275.391 115.437 265.805L111.548 287.888C114.511 295.591 133.216 300.213 133.216 300.213C145.994 293.537 162.847 263.579 162.847 263.579C162.847 263.579 163.402 267.345 162.662 269.4C162.106 270.94 160.069 275.734 160.069 275.734L175.996 273.508L164.514 280.184C164.514 280.184 179.699 301.24 180.996 306.547C182.292 311.683 188.218 331.54 193.404 333.766C201.923 337.532 211.182 331.54 216.183 324.522C221.368 317.674 247.295 252.966 247.295 252.966C247.295 252.966 225.072 279.328 220.442 281.896C216.183 284.464 201.552 289.257 199.886 289.942C201.367 289.428 210.997 285.662 214.145 284.293C217.664 282.752 228.405 272.652 234.887 263.922C241.184 255.191 252.851 223.179 252.851 223.179C252.851 229.855 252.11 238.757 249.517 249.028C243.406 272.995 228.776 305.691 228.776 318.873C228.776 332.054 250.999 382.383 250.999 382.383C250.999 382.383 240.073 394.024 219.886 398.646C206.182 401.727 179.144 400.015 179.144 400.015C179.144 400.015 200.071 404.124 219.516 401.213C244.147 397.447 256.74 385.293 256.74 385.293C257.666 386.834 256.184 389.23 256.184 389.23Z" fill="url(#paint32_linear_111_75)"/>
<path opacity="0.9" d="M150.439 285.491L160.996 270.598L160.255 275.905L176.181 273.68L151.736 289.942L150.439 285.491Z" fill="#BE2B53"/>
<path d="M177.107 205.547C175.44 207.43 145.439 223.693 143.401 224.891L142.475 226.09C142.475 226.09 126.549 268.544 124.882 270.598C123.215 272.652 111.733 286.176 111.733 286.176C109.326 285.834 109.141 285.149 109.141 285.149C114.326 274.364 127.29 218.386 127.29 218.386C128.03 217.873 129.882 217.017 132.29 215.99C144.698 210.854 174.699 200.754 174.699 200.754C174.699 200.754 178.773 203.664 177.107 205.547Z" fill="url(#paint33_linear_111_75)"/>
<path d="M177.107 205.547C175.44 207.43 146.365 223.864 144.513 224.891L143.957 225.234C136.92 221.125 128.957 218.557 128.957 218.557L132.29 215.99C144.698 210.854 174.699 200.754 174.699 200.754C174.699 200.754 178.774 203.664 177.107 205.547Z" fill="url(#paint34_linear_111_75)"/>
<path opacity="0.9" d="M150.439 285.491C150.439 285.491 161.18 269.057 161.736 265.976C162.292 262.894 156.18 236.532 150.439 230.711C144.698 224.72 130.253 219.242 127.29 218.386C127.29 218.386 145.254 223.521 152.106 230.198C158.773 236.874 162.847 260.498 163.403 265.12C163.958 269.742 160.254 275.904 160.254 275.904L150.439 285.491Z" fill="url(#paint35_linear_111_75)"/>
<path d="M175.07 199.385C175.07 199.385 177.848 201.268 181.181 202.637C184.7 204.007 203.59 203.493 208.59 202.295C213.59 201.096 214.516 199.556 214.516 199.556C214.516 199.556 209.701 201.439 203.96 201.61C198.219 201.61 182.292 201.439 180.996 200.925C179.7 200.412 179.144 197.502 179.144 197.502C179.144 197.502 176.551 195.79 175.07 199.385Z" fill="url(#paint36_linear_111_75)"/>
<path d="M125.993 119.954C125.993 119.954 130.067 126.459 130.067 126.972C130.067 127.657 131.919 141.523 133.401 145.118C134.882 148.713 150.809 168.057 162.291 174.905C162.291 174.905 137.29 161.723 128.771 143.577C128.771 143.577 127.66 132.793 128.586 127.143L125.993 119.954Z" fill="url(#paint37_linear_111_75)"/>
<path d="M174.514 200.583C174.514 200.583 164.884 205.889 159.143 208.628C153.402 211.367 127.29 218.386 127.29 218.386C127.29 218.386 151.921 207.43 174.514 200.583Z" fill="url(#paint38_linear_111_75)"/>
<path d="M110.252 100.267C110.252 100.267 114.697 105.232 115.623 105.403C116.363 105.574 134.698 107.286 141.179 106.601C147.661 105.916 169.514 94.6182 169.514 94.6182C169.514 94.6182 155.439 105.403 153.587 106.259C151.735 107.115 146.365 109.169 141.179 109.854C135.994 110.539 113.771 106.772 112.104 105.403C110.622 104.033 110.252 100.267 110.252 100.267Z" fill="url(#paint39_linear_111_75)"/>
<path d="M115.252 69.4536C115.252 69.4536 128.031 56.101 134.883 50.623C141.55 44.9739 168.773 32.6484 168.773 32.6484C168.773 32.6484 141.18 37.4417 133.587 41.0366C126.179 44.4603 119.327 59.3536 115.252 69.4536Z" fill="url(#paint40_linear_111_75)"/>
<path d="M106.363 79.5532C106.363 79.5532 117.104 94.7888 122.66 95.9872C128.401 97.1855 159.699 89.6532 165.995 82.977C172.292 76.1295 176.922 70.3091 178.218 65.3447C178.218 65.3447 171.921 79.7244 157.106 83.1482C147.291 85.5448 129.327 90.1668 121.734 89.1397C114.141 87.9414 106.363 79.5532 106.363 79.5532Z" fill="url(#paint41_linear_111_75)"/>
<path d="M180.996 5.25858C180.996 5.25858 172.477 12.962 171.551 19.2959C171.181 22.3773 175.625 34.3603 176.366 35.5586C177.107 36.757 187.478 44.8027 187.478 44.8027C187.478 44.8027 177.848 25.6298 178.218 19.6383C178.403 13.6467 182.848 7.31282 187.107 5.25858C191.367 3.20434 195.441 1.32129 195.441 1.32129C195.441 1.32129 185.626 3.37553 180.996 5.25858Z" fill="url(#paint42_linear_111_75)"/>
<path d="M148.031 350.885C148.031 350.885 154.513 351.398 164.884 352.768L178.773 338.388C178.773 338.388 175.07 331.883 166.365 335.649L148.031 350.885Z" fill="url(#paint43_linear_111_75)"/>
<path d="M187.107 147.172C187.107 147.172 193.219 165.832 196.552 170.454C199.886 175.076 209.146 180.554 210.071 183.806C210.997 187.059 217.109 196.645 217.109 196.645C217.109 196.645 212.664 182.266 211.368 179.184C210.071 176.103 199.33 170.796 197.108 167.372C194.886 163.778 191.737 148.713 191.737 148.713L195.256 145.118C195.256 145.289 188.033 145.118 187.107 147.172Z" fill="url(#paint44_linear_111_75)"/>
<path d="M214.516 152.479C214.516 152.479 219.331 166.174 219.702 169.084C220.072 172.166 218.776 179.013 218.776 179.013C218.776 179.013 222.665 169.94 222.665 167.543C222.665 165.318 218.961 162.237 217.479 158.642C215.998 155.047 217.479 150.425 217.479 150.425L214.516 152.479Z" fill="url(#paint45_linear_111_75)"/>
<path opacity="0.9" d="M186.552 53.8755C186.552 53.8755 194.885 60.5518 206.738 63.462C221.739 67.2281 231.924 60.5518 231.924 60.5518L230.998 56.9569C230.998 56.9569 225.257 60.2094 218.035 60.8942C210.997 61.9213 195.071 58.3263 186.552 53.8755Z" fill="#EB6114"/>
<path opacity="0.5" d="M174.144 126.117C174.144 126.117 191.181 135.361 194.515 135.361C198.034 135.361 203.404 127.829 208.034 120.125C212.479 112.764 211.553 76.1304 211.553 76.1304C211.553 76.1304 215.627 112.422 214.516 115.161C213.405 117.9 210.627 135.19 203.775 139.469C196.922 143.749 189.329 147.344 184.329 147.515L177.847 143.578C177.662 143.407 176.921 135.361 174.144 126.117Z" fill="url(#paint46_linear_111_75)"/>
<path opacity="0.5" d="M190.626 149.911C190.626 149.911 207.293 149.74 212.479 147.172C217.664 144.605 234.887 136.901 240.813 131.766C246.925 126.63 247.666 114.989 247.666 114.989L247.851 123.035C247.851 123.035 241.554 134.847 234.887 139.127C228.22 143.235 217.849 149.569 214.516 152.479C214.516 152.479 209.886 156.416 206.738 156.416C203.589 156.588 190.626 149.911 190.626 149.911Z" fill="url(#paint47_linear_111_75)"/>
<path d="M199.701 154.362C199.701 154.362 203.219 164.633 205.071 167.886C206.923 171.138 211.368 178.499 213.035 183.806C214.701 188.942 217.109 205.547 217.109 205.547C217.109 205.547 217.664 191.167 217.109 183.464C217.109 183.464 210.257 171.31 210.072 164.804C209.886 158.299 214.516 152.479 214.516 152.479L205.812 154.704L199.701 154.362Z" fill="url(#paint48_linear_111_75)"/>
<path opacity="0.5" d="M196.367 12.9619C196.367 12.9619 201.738 22.206 210.812 28.1975C219.887 34.1891 231.369 25.1162 231.369 25.1162L228.776 20.6653C228.776 20.6653 221.739 24.4314 213.775 24.4314C205.997 24.4314 196.367 12.9619 196.367 12.9619Z" fill="url(#paint49_linear_111_75)"/>
<path opacity="0.69" d="M238.406 391.969C238.406 391.969 245.259 386.834 244.518 382.383C243.221 375.022 235.814 351.74 231.925 339.586C228.036 327.432 226.739 318.359 226.739 317.332C226.739 316.305 240.999 277.445 240.999 277.445C240.999 277.445 229.702 308.944 229.147 318.359C228.591 327.603 244.147 369.201 251 382.04C251 381.869 246.925 386.834 238.406 391.969Z" fill="url(#paint50_linear_111_75)"/>
<path d="M105.252 288.059C105.252 288.059 108.03 294.735 114.141 299.015C120.253 303.295 129.512 307.232 129.512 307.232C129.512 307.232 111.549 291.825 110.623 288.059C110.623 288.059 115.252 268.544 117.475 259.813C120.438 248.173 127.475 218.215 127.475 218.215C127.475 218.215 124.142 223.35 123.586 229C123.031 234.649 117.66 255.534 115.252 264.435C112.66 273.166 109.511 285.149 109.511 285.149L105.252 288.059Z" fill="url(#paint51_linear_111_75)"/>
<path d="M170.07 308.088C170.07 308.088 168.958 332.054 166.921 334.45C164.884 336.847 150.069 347.461 146.18 352.596C142.476 357.732 128.957 378.788 128.957 378.788C128.957 378.788 146.92 352.767 150.439 351.569C154.143 350.371 171.181 337.874 171.921 334.279C172.662 330.513 173.218 308.601 173.218 308.601C173.218 308.601 171.366 307.232 170.07 308.088Z" fill="url(#paint52_radial_111_75)"/>
<path d="M124.697 396.592C124.697 396.592 121.364 405.836 120.252 415.936C119.141 426.036 120.252 430.829 120.252 430.829H113.585C113.585 431 114.697 409.26 124.697 396.592Z" fill="url(#paint53_linear_111_75)"/>
<path d="M155.069 341.127C155.069 341.127 156.736 340.442 158.402 339.244C160.069 338.046 174.699 342.325 176.181 343.695C177.662 345.064 204.33 349.173 223.776 352.939C223.776 352.939 208.219 351.741 193.589 350.2C178.959 348.659 173.403 345.92 173.403 345.92C173.403 345.92 165.995 340.613 155.069 341.127Z" fill="url(#paint54_linear_111_75)"/>
<path d="M155.069 344.208V341.127C155.069 341.127 162.291 339.929 170.44 344.208C178.588 348.488 213.22 351.912 213.22 351.912C213.22 351.912 186.922 351.056 176.551 349.173C168.403 347.632 163.403 344.037 155.069 344.208Z" fill="#C8315A"/>
<path d="M179.515 197.158C179.515 197.158 184.885 193.05 185.626 191.167C185.626 191.167 185.996 183.464 185.07 179.013C185.07 179.013 186.737 187.743 187.108 191.852C187.108 191.852 184.33 195.275 180.07 198.014L179.515 197.158Z" fill="url(#paint55_linear_111_75)"/>
<path d="M121.179 388.375C121.179 388.375 123.586 390.258 127.66 390.942C131.735 391.627 146.55 395.393 155.995 396.763C165.255 398.132 179.7 400.358 179.7 400.358C179.7 400.358 162.662 396.592 150.624 392.826C138.587 388.888 125.623 383.924 125.623 383.924C125.623 383.924 121.919 387.005 121.179 388.375Z" fill="url(#paint56_linear_111_75)"/>
<path d="M40.9895 193.564C42.471 193.906 48.3972 187.572 47.4713 185.176C46.7305 183.122 43.397 183.635 43.397 183.635C43.397 183.635 39.1375 193.05 40.9895 193.564Z" fill="url(#paint57_linear_111_75)"/>
<path d="M106.918 291.312C106.918 291.312 99.6959 297.645 96.7328 301.412C93.7697 305.349 90.8066 307.745 91.177 314.593C91.177 314.593 93.0289 308.259 97.844 304.322C102.844 300.384 110.067 295.42 110.067 295.42L106.918 291.312Z" fill="url(#paint58_linear_111_75)"/>
<path d="M40.8047 220.954C40.8047 220.954 44.879 225.405 56.7314 227.973C68.5837 230.541 70.4357 222.495 70.4357 222.495C70.4357 222.495 73.584 226.774 74.6952 230.883C74.6952 230.883 81.3621 233.451 84.6956 231.91L83.9548 232.937L84.6956 236.19C84.6956 236.19 71.3616 232.595 67.6578 240.983C67.6578 240.983 65.2503 237.217 62.8428 235.676C60.4353 233.964 45.0641 225.234 40.8047 220.954Z" fill="url(#paint59_linear_111_75)"/>
<path d="M4.32103 163.777C4.32103 163.777 11.914 173.535 14.6919 176.788L13.3955 177.815C13.3955 177.815 6.91375 173.021 2.6543 165.318L4.32103 163.777Z" fill="url(#paint60_linear_111_75)"/>
<path d="M14.5068 178.499L15.4328 177.644C19.5071 182.608 19.3219 182.437 20.9886 184.32L20.0626 185.176C20.0626 185.176 15.8032 181.752 14.5068 178.499Z" fill="url(#paint61_linear_111_75)"/>
<path d="M14.5068 178.499L15.0624 177.986C15.0624 177.986 18.2107 182.95 20.8034 184.662L20.0626 185.347C20.0626 185.176 15.8032 182.094 14.5068 178.499Z" fill="#D9D2F9"/>
<path d="M2.83984 165.147L3.76581 164.291C3.76581 164.291 7.46971 170.796 14.3219 176.959L13.5811 177.472C13.5811 177.644 6.35852 172.166 2.83984 165.147Z" fill="#D9D2F9"/>
<defs>
<linearGradient id="paint0_linear_111_75" x1="69.8375" y1="235.99" x2="67.9601" y2="196.374" gradientUnits="userSpaceOnUse">
<stop offset="0.00558659" stop-color="#F48781"/>
<stop offset="1" stop-color="#EF7A8E"/>
</linearGradient>
<linearGradient id="paint1_linear_111_75" x1="25.5762" y1="217.017" x2="23.0378" y2="163.452" gradientUnits="userSpaceOnUse">
<stop offset="0.00558659" stop-color="#F48781"/>
<stop offset="1" stop-color="#EF7A8E"/>
</linearGradient>
<linearGradient id="paint2_linear_111_75" x1="81.803" y1="225.057" x2="77.0354" y2="124.452" gradientUnits="userSpaceOnUse">
<stop stop-color="#F26F92"/>
<stop offset="1" stop-color="#F49DAA"/>
</linearGradient>
<linearGradient id="paint3_linear_111_75" x1="20.3482" y1="206.051" x2="17.9687" y2="155.841" gradientUnits="userSpaceOnUse">
<stop stop-color="#B9ACF4"/>
<stop offset="1" stop-color="#E1D1F5"/>
</linearGradient>
<linearGradient id="paint4_linear_111_75" x1="79.3224" y1="223.352" x2="79.3224" y2="125.94" gradientUnits="userSpaceOnUse">
<stop stop-color="#8DE73E"/>
<stop offset="1" stop-color="#318918"/>
</linearGradient>
<linearGradient id="paint5_linear_111_75" x1="80.3739" y1="350.212" x2="72.3835" y2="181.6" gradientUnits="userSpaceOnUse">
<stop stop-color="#FF7777"/>
<stop offset="0.984" stop-color="#FFAF9F"/>
</linearGradient>
<linearGradient id="paint6_linear_111_75" x1="70.1459" y1="208.717" x2="158.705" y2="203.805" gradientUnits="userSpaceOnUse">
<stop stop-color="#99196F"/>
<stop offset="1" stop-color="#6456C0"/>
</linearGradient>
<linearGradient id="paint7_linear_111_75" x1="78.8448" y1="171.629" x2="128.237" y2="171.629" gradientUnits="userSpaceOnUse">
<stop stop-color="#F9BEB2"/>
<stop offset="1" stop-color="#F57699"/>
</linearGradient>
<linearGradient id="paint8_linear_111_75" x1="120.59" y1="349.496" x2="120.59" y2="246.828" gradientUnits="userSpaceOnUse">
<stop stop-color="#FF7777"/>
<stop offset="0.984" stop-color="#FFC2A9"/>
</linearGradient>
<linearGradient id="paint9_linear_111_75" x1="161.128" y1="257.566" x2="161.128" y2="156.523" gradientUnits="userSpaceOnUse">
<stop offset="0.0159875" stop-color="#FFC2A9"/>
<stop offset="1" stop-color="#FF9595"/>
</linearGradient>
<linearGradient id="paint10_linear_111_75" x1="144.63" y1="205.491" x2="144.63" y2="193.785" gradientUnits="userSpaceOnUse">
<stop stop-color="#FF817F"/>
<stop offset="1" stop-color="#CF6074"/>
</linearGradient>
<linearGradient id="paint11_linear_111_75" x1="148.079" y1="185.721" x2="148.079" y2="181.854" gradientUnits="userSpaceOnUse">
<stop stop-color="#FF817F"/>
<stop offset="1" stop-color="#CF6074"/>
</linearGradient>
<linearGradient id="paint12_linear_111_75" x1="157.901" y1="181.854" x2="157.901" y2="180.126" gradientUnits="userSpaceOnUse">
<stop stop-color="#FF817F"/>
<stop offset="1" stop-color="#CF6074"/>
</linearGradient>
<linearGradient id="paint13_linear_111_75" x1="168.272" y1="180.728" x2="168.272" y2="179.671" gradientUnits="userSpaceOnUse">
<stop stop-color="#FF817F"/>
<stop offset="1" stop-color="#CF6074"/>
</linearGradient>
<linearGradient id="paint14_linear_111_75" x1="114.726" y1="166.716" x2="114.726" y2="157.092" gradientUnits="userSpaceOnUse">
<stop stop-color="#FFA7A7"/>
<stop offset="0.984" stop-color="#FFC2A9"/>
</linearGradient>
<linearGradient id="paint15_linear_111_75" x1="122.535" y1="188.983" x2="122.535" y2="160.881" gradientUnits="userSpaceOnUse">
<stop stop-color="#00B1FF"/>
<stop offset="1" stop-color="#6FFFFF"/>
</linearGradient>
<linearGradient id="paint16_linear_111_75" x1="174.807" y1="219.425" x2="174.807" y2="32.6719" gradientUnits="userSpaceOnUse">
<stop offset="0.0159875" stop-color="#FFC2A9"/>
<stop offset="1" stop-color="#FF9595"/>
</linearGradient>
<linearGradient id="paint17_linear_111_75" x1="168.631" y1="196.768" x2="168.631" y2="94.0521" gradientUnits="userSpaceOnUse">
<stop offset="0.00558659" stop-color="#F48781"/>
<stop offset="1" stop-color="#EF7A8E"/>
</linearGradient>
<linearGradient id="paint18_linear_111_75" x1="176.489" y1="156.538" x2="176.489" y2="31.5583" gradientUnits="userSpaceOnUse">
<stop stop-color="#8C1170"/>
<stop offset="1" stop-color="#DD4065"/>
</linearGradient>
<linearGradient id="paint19_linear_111_75" x1="149.792" y1="109.877" x2="149.792" y2="56.1828" gradientUnits="userSpaceOnUse">
<stop stop-color="#C1117C"/>
<stop offset="1" stop-color="#DD4065"/>
</linearGradient>
<linearGradient id="paint20_linear_111_75" x1="176.489" y1="156.112" x2="176.489" y2="40.0236" gradientUnits="userSpaceOnUse">
<stop stop-color="#D89E77"/>
<stop offset="1" stop-color="#FFAA39"/>
</linearGradient>
<linearGradient id="paint21_linear_111_75" x1="210.088" y1="61.2419" x2="210.088" y2="0.116426" gradientUnits="userSpaceOnUse">
<stop stop-color="#B9116B"/>
<stop offset="1" stop-color="#DD4065"/>
</linearGradient>
<linearGradient id="paint22_linear_111_75" x1="181.174" y1="405.881" x2="181.174" y2="191.56" gradientUnits="userSpaceOnUse">
<stop stop-color="#ED436C"/>
<stop offset="1" stop-color="#B72952"/>
</linearGradient>
<linearGradient id="paint23_linear_111_75" x1="163.335" y1="141.584" x2="163.335" y2="128.459" gradientUnits="userSpaceOnUse">
<stop stop-color="#DB5F69"/>
<stop offset="1" stop-color="#DC505E"/>
</linearGradient>
<linearGradient id="paint24_linear_111_75" x1="162.504" y1="146.337" x2="162.504" y2="124.242" gradientUnits="userSpaceOnUse">
<stop stop-color="#DB5F69"/>
<stop offset="1" stop-color="#DC505E"/>
</linearGradient>
<linearGradient id="paint25_linear_111_75" x1="169.383" y1="151.848" x2="169.383" y2="143.386" gradientUnits="userSpaceOnUse">
<stop stop-color="#FF9595"/>
<stop offset="0.984" stop-color="#FFC2A9"/>
</linearGradient>
<linearGradient id="paint26_linear_111_75" x1="166.085" y1="143.133" x2="166.085" y2="116.231" gradientUnits="userSpaceOnUse">
<stop stop-color="#FF9595"/>
<stop offset="0.984" stop-color="#FFC2A9"/>
</linearGradient>
<linearGradient id="paint27_linear_111_75" x1="178.084" y1="151.961" x2="178.084" y2="143.386" gradientUnits="userSpaceOnUse">
<stop stop-color="#FF817F"/>
<stop offset="1" stop-color="#CF6074"/>
</linearGradient>
<linearGradient id="paint28_linear_111_75" x1="210.088" y1="61.2416" x2="210.088" y2="1.84837" gradientUnits="userSpaceOnUse">
<stop stop-color="#D89E77"/>
<stop offset="1" stop-color="#FFAA39"/>
</linearGradient>
<linearGradient id="paint29_linear_111_75" x1="215.108" y1="32.008" x2="215.108" y2="12.9241" gradientUnits="userSpaceOnUse">
<stop stop-color="#D89E77"/>
<stop offset="1" stop-color="#FFAA39"/>
</linearGradient>
<linearGradient id="paint30_linear_111_75" x1="211.608" y1="23.0797" x2="211.608" y2="-0.00346718" gradientUnits="userSpaceOnUse">
<stop stop-color="#D89E77"/>
<stop offset="1" stop-color="#FFAA39"/>
</linearGradient>
<linearGradient id="paint31_linear_111_75" x1="213.138" y1="209.588" x2="213.138" y2="191.56" gradientUnits="userSpaceOnUse">
<stop stop-color="#F9BEB2"/>
<stop offset="1" stop-color="#FC95B5"/>
</linearGradient>
<linearGradient id="paint32_linear_111_75" x1="181.173" y1="405.908" x2="181.173" y2="223.421" gradientUnits="userSpaceOnUse">
<stop stop-color="#FC95B5"/>
<stop offset="1" stop-color="#FF7193"/>
</linearGradient>
<linearGradient id="paint33_linear_111_75" x1="143.358" y1="286.165" x2="143.358" y2="200.575" gradientUnits="userSpaceOnUse">
<stop stop-color="#F9BEB2"/>
<stop offset="1" stop-color="#FC95B5"/>
</linearGradient>
<linearGradient id="paint34_linear_111_75" x1="153.21" y1="225.249" x2="153.21" y2="200.575" gradientUnits="userSpaceOnUse">
<stop stop-color="#F9BEB2"/>
<stop offset="1" stop-color="#FFCCDC"/>
</linearGradient>
<linearGradient id="paint35_linear_111_75" x1="145.361" y1="285.564" x2="145.361" y2="218.267" gradientUnits="userSpaceOnUse">
<stop stop-color="#F6799B"/>
<stop offset="1" stop-color="#E13E67"/>
</linearGradient>
<linearGradient id="paint36_linear_111_75" x1="194.776" y1="203.29" x2="194.776" y2="196.942" gradientUnits="userSpaceOnUse">
<stop stop-color="#FA90AD"/>
<stop offset="1" stop-color="#F6789A"/>
</linearGradient>
<linearGradient id="paint37_linear_111_75" x1="144.094" y1="175.022" x2="144.094" y2="120.012" gradientUnits="userSpaceOnUse">
<stop stop-color="#89E33D"/>
<stop offset="1" stop-color="#378F1B"/>
</linearGradient>
<linearGradient id="paint38_linear_111_75" x1="150.959" y1="218.267" x2="150.959" y2="200.575" gradientUnits="userSpaceOnUse">
<stop stop-color="#89E33D"/>
<stop offset="1" stop-color="#429B1F"/>
</linearGradient>
<linearGradient id="paint39_linear_111_75" x1="139.925" y1="109.946" x2="139.925" y2="94.6389" gradientUnits="userSpaceOnUse">
<stop stop-color="#65BE2E"/>
<stop offset="0.445833" stop-color="#98186F"/>
</linearGradient>
<linearGradient id="paint40_linear_111_75" x1="142.011" y1="69.3991" x2="142.011" y2="32.5134" gradientUnits="userSpaceOnUse">
<stop stop-color="#FFAA39" stop-opacity="0"/>
<stop offset="1" stop-color="#FFAA39"/>
</linearGradient>
<linearGradient id="paint41_linear_111_75" x1="142.303" y1="96.0382" x2="142.303" y2="65.2061" gradientUnits="userSpaceOnUse">
<stop stop-color="#D89E77"/>
<stop offset="1" stop-color="#FFAA39"/>
</linearGradient>
<linearGradient id="paint42_linear_111_75" x1="183.569" y1="44.8763" x2="183.569" y2="1.34525" gradientUnits="userSpaceOnUse">
<stop stop-color="#FFAA39"/>
<stop offset="1" stop-color="#FFAA39" stop-opacity="0"/>
</linearGradient>
<linearGradient id="paint43_linear_111_75" x1="148.155" y1="338.094" x2="171.882" y2="350.197" gradientUnits="userSpaceOnUse">
<stop stop-color="#FC95B5"/>
<stop offset="1" stop-color="#B72952"/>
</linearGradient>
<linearGradient id="paint44_linear_111_75" x1="202.109" y1="196.768" x2="202.109" y2="145.275" gradientUnits="userSpaceOnUse">
<stop stop-color="#DD4065"/>
<stop offset="1" stop-color="#8C1170"/>
</linearGradient>
<linearGradient id="paint45_linear_111_75" x1="218.559" y1="179.079" x2="218.559" y2="150.587" gradientUnits="userSpaceOnUse">
<stop stop-color="#DD4065"/>
<stop offset="1" stop-color="#8C1170"/>
</linearGradient>
<linearGradient id="paint46_linear_111_75" x1="174.148" y1="111.664" x2="214.722" y2="111.664" gradientUnits="userSpaceOnUse">
<stop stop-color="#D89E77"/>
<stop offset="1" stop-color="#FFAA39"/>
</linearGradient>
<linearGradient id="paint47_linear_111_75" x1="190.553" y1="135.826" x2="247.828" y2="135.826" gradientUnits="userSpaceOnUse">
<stop stop-color="#D89E77"/>
<stop offset="1" stop-color="#FFAA39"/>
</linearGradient>
<linearGradient id="paint48_linear_111_75" x1="208.479" y1="205.623" x2="208.479" y2="152.534" gradientUnits="userSpaceOnUse">
<stop stop-color="#DD4065"/>
<stop offset="1" stop-color="#8C1170"/>
</linearGradient>
<linearGradient id="paint49_linear_111_75" x1="196.394" y1="21.601" x2="231.461" y2="21.601" gradientUnits="userSpaceOnUse">
<stop stop-color="#D89E77"/>
<stop offset="1" stop-color="#FFAA39"/>
</linearGradient>
<linearGradient id="paint50_linear_111_75" x1="226.767" y1="334.658" x2="250.97" y2="334.658" gradientUnits="userSpaceOnUse">
<stop stop-color="#F9BEB2"/>
<stop offset="1" stop-color="#FC95B5"/>
</linearGradient>
<linearGradient id="paint51_linear_111_75" x1="117.245" y1="307.337" x2="117.245" y2="218.267" gradientUnits="userSpaceOnUse">
<stop stop-color="#88E23C"/>
<stop offset="1" stop-color="#55AE27"/>
</linearGradient>
<radialGradient id="paint52_radial_111_75" cx="0" cy="0" r="1" gradientUnits="userSpaceOnUse" gradientTransform="translate(151.152 343.266) scale(31.3424 28.9718)">
<stop stop-color="#F6799B"/>
<stop offset="1" stop-color="#B72952"/>
</radialGradient>
<linearGradient id="paint53_linear_111_75" x1="119.14" y1="431" x2="119.14" y2="396.655" gradientUnits="userSpaceOnUse">
<stop stop-color="#9059AE"/>
<stop offset="1" stop-color="#009CFF"/>
</linearGradient>
<linearGradient id="paint54_linear_111_75" x1="189.446" y1="352.861" x2="189.446" y2="339.083" gradientUnits="userSpaceOnUse">
<stop stop-color="#ED436C"/>
<stop offset="0.5223" stop-color="#E8416A"/>
<stop offset="1" stop-color="#72CC33"/>
</linearGradient>
<linearGradient id="paint55_linear_111_75" x1="183.288" y1="197.973" x2="183.288" y2="179.078" gradientUnits="userSpaceOnUse">
<stop stop-color="#87E13C"/>
<stop offset="1" stop-color="#38901B"/>
</linearGradient>
<linearGradient id="paint56_linear_111_75" x1="150.367" y1="400.177" x2="150.367" y2="383.684" gradientUnits="userSpaceOnUse">
<stop stop-color="#BD2C55"/>
<stop offset="0.5223" stop-color="#E9416A"/>
<stop offset="1" stop-color="#6AC330"/>
</linearGradient>
<linearGradient id="paint57_linear_111_75" x1="44.2641" y1="193.43" x2="43.8006" y2="183.643" gradientUnits="userSpaceOnUse">
<stop stop-color="#FFC4A7"/>
<stop offset="0.984" stop-color="#FFC2A9"/>
</linearGradient>
<linearGradient id="paint58_linear_111_75" x1="90.9386" y1="303.026" x2="109.914" y2="303.026" gradientUnits="userSpaceOnUse">
<stop stop-color="#88E23C"/>
<stop offset="1" stop-color="#378F1B"/>
</linearGradient>
<linearGradient id="paint59_linear_111_75" x1="62.8146" y1="240.956" x2="62.8146" y2="220.934" gradientUnits="userSpaceOnUse">
<stop offset="0.00558659" stop-color="#F48781"/>
<stop offset="1" stop-color="#EF7A8E"/>
</linearGradient>
<linearGradient id="paint60_linear_111_75" x1="3.70582" y1="171.388" x2="13.8127" y2="169.982" gradientUnits="userSpaceOnUse">
<stop stop-color="#9C91DE"/>
<stop offset="1" stop-color="#CF95FF"/>
</linearGradient>
<linearGradient id="paint61_linear_111_75" x1="14.8917" y1="181.709" x2="20.5769" y2="180.918" gradientUnits="userSpaceOnUse">
<stop stop-color="#9C91DE"/>
<stop offset="1" stop-color="#CF95FF"/>
</linearGradient>
</defs>
</svg>
